#!OML:ASF F:\VICON\USERDATA\INSTALL\rory3\rory3.ASF
:FULLY-SPECIFIED
:DEGREES
290
root 0.169374 18.0045 25.6056 -4.29013 1.9488 -4.54357
lowerback 10.2858 -0.409702 2.45083
upperback 0.859657 -0.109808 2.95129
thorax -4.87488 -0.0754936 1.71598
lowerneck -14.8207 -2.83209 -1.71182
upperneck 21.3201 -3.69205 0.703284
head 9.19321 -1.78724 0.0754327
rclavicle 1.93567e-014 -2.10712e-014
rhumerus -33.0087 -27.7463 -73.0732
rradius 20.0039
rwrist 12.3939
rhand -18.2118 23.2171
rfingers 7.12502
rthumb 8.0659 -6.60896
lclavicle 1.93567e-014 -2.10712e-014
lhumerus -27.3517 1.27508 84.6443
lradius 28.8582
lwrist 2.96225
lhand -30.2968 26.1701
lfingers 7.12502
lthumb -3.60409 56.1194
rfemur -12.8708 4.4222 31.7827
rtibia 32.1208
rfoot -11.4924 -6.47833
rtoes 10.5978
lfemur -13.7598 2.73148 -14.098
ltibia 71.426
lfoot 1.26512 -9.6609
ltoes -7.78609
291
root 0.167193 18.0122 25.7792 -4.10813 1.74387 -4.23533
lowerback 9.93923 -0.28289 2.1378
upperback 0.875971 0.000782566 2.81652
thorax -4.66492 -0.0151962 1.73166
lowerneck -14.5667 -2.82799 -1.71413
upperneck 21.0631 -3.68989 0.72064
head 9.05766 -1.78687 0.0878261
rclavicle -5.65294e-015 -3.18055e-015
rhumerus -32.3117 -26.4388 -73.9991
rradius 20.4857
rwrist 11.0775
rhand -18.0647 23.368
rfingers 7.12502
rthumb 8.20793 -6.45256
lclavicle -5.65294e-015 -3.18055e-015
lhumerus -27.6994 1.50674 84.4488
lradius 28.6225
lwrist 3.60287
lhand -29.5803 25.504
lfingers 7.12502
lthumb -2.91213 55.4639
rfemur -12.3099 4.49888 31.5386
rtibia 31.9862
rfoot -11.9709 -6.42088
rtoes 10.6715
lfemur -15.1184 3.02066 -14.4971
ltibia 71.4686
lfoot 0.870753 -9.02212
ltoes -5.58904
292
root 0.161362 18.0156 25.9541 -4.17326 1.37576 -4.42424
lowerback 9.92857 -0.0903716 2.38857
upperback 0.811681 0.282957 2.74844
thorax -4.72872 0.118151 1.48075
lowerneck -14.16 -2.94087 -1.80703
upperneck 21.0433 -3.8703 0.888097
head 8.98379 -1.86305 0.144804
rclavicle 1.2424e-015 -3.18055e-015
rhumerus -31.9956 -25.2878 -74.8356
rradius 21.1781
rwrist 9.65139
rhand -17.7887 22.9766
rfingers 7.12502
rthumb 8.47425 -6.83339
lclavicle 1.2424e-015 -3.18055e-015
lhumerus -28.3137 1.55762 84.1982
lradius 28.5061
lwrist 4.07604
lhand -28.7393 24.7774
lfingers 7.12502
lthumb -2.09989 54.7468
rfemur -11.4139 4.82232 31.904
rtibia 31.8175
rfoot -12.4308 -6.58342
rtoes 11.0335
lfemur -16.2135 3.48658 -14.2478
ltibia 71.457
lfoot -0.201654 -8.42913
ltoes -4.69418
293
root 0.159378 18.0126 26.1269 -4.30829 0.962617 -4.85687
lowerback 10.137 0.064706 2.92899
upperback 0.845576 0.558393 2.75899
thorax -4.80741 0.242735 1.14973
lowerneck -14.3236 -3.03178 -1.96489
upperneck 21.1763 -3.9967 1.05447
head 9.06908 -1.91503 0.208671
rclavicle 5.31749e-015 -3.18055e-015
rhumerus -31.2092 -25.0299 -75.3725
rradius 21.1324
rwrist 9.44548
rhand -17.9497 23.4105
rfingers 7.12502
rthumb 8.31888 -6.40566
lclavicle 5.31749e-015 -3.18055e-015
lhumerus -28.666 1.78485 83.9589
lradius 28.3184
lwrist 4.57866
lhand -28.7051 24.627
lfingers 7.12502
lthumb -2.06691 54.5968
rfemur -10.484 5.24539 32.5408
rtibia 31.6398
rfoot -12.7925 -6.84885
rtoes 11.237
lfemur -17.2404 3.89134 -13.7332
ltibia 71.3454
lfoot -1.52966 -7.73625
ltoes -5.28036
294
root 0.166982 18.0081 26.2895 -4.29222 0.753814 -5.2508
lowerback 10.3012 0.100508 3.48188
upperback 0.837432 0.680253 2.80322
thorax -4.90223 0.290771 0.868131
lowerneck -14.6015 -3.02864 -2.04823
upperneck 21.3393 -3.96932 1.05528
head 9.17846 -1.90618 0.220509
rclavicle 4.29872e-015 -1.70955e-014
rhumerus -30.2313 -24.7834 -75.8288
rradius 20.7996
rwrist 9.40539
rhand -18.2519 24.3301
rfingers 7.12502
rthumb 8.02721 -5.4975
lclavicle 4.29872e-015 -1.70955e-014
lhumerus -29.0175 1.99302 83.8055
lradius 28.1888
lwrist 5.28767
lhand -28.7305 22.8505
lfingers 7.12502
lthumb -2.09145 52.82
rfemur -9.81199 5.37227 33.0513
rtibia 31.4773
rfoot -13.1115 -6.91368
rtoes 11.3871
lfemur -18.5074 4.08903 -13.352
ltibia 71.1135
lfoot -2.67315 -7.04377
ltoes -6.16534
295
root 0.169801 18.0029 26.4432 -4.24048 0.654419 -5.37134
lowerback 10.3907 0.157239 3.71443
upperback 0.760901 0.788185 2.74688
thorax -5.02781 0.336384 0.663274
lowerneck -14.5567 -2.98008 -1.78463
upperneck 21.4396 -3.92096 0.852558
head 9.19364 -1.88433 0.11359
rclavicle 1.95057e-015 2.38542e-015
rhumerus -29.663 -24.2445 -76.362
rradius 21.0278
rwrist 8.87667
rhand -18.3665 24.9477
rfingers 7.12502
rthumb 7.91658 -4.88405
lclavicle 1.95057e-015 2.38542e-015
lhumerus -29.3611 2.20961 83.5436
lradius 27.8721
lwrist 5.39353
lhand -28.4606 20.7241
lfingers 7.12502
lthumb -1.83076 50.696
rfemur -9.31778 5.44565 33.2723
rtibia 31.5788
rfoot -13.6351 -7.02632
rtoes 11.7042
lfemur -19.7894 4.1534 -13.2751
ltibia 70.6919
lfoot -3.37192 -6.59833
ltoes -5.61288
